<svg viewBox="0 0 240 240" xmlns="http://www.w3.org/2000/svg" role="img" aria-label="AtlasLens icon">
  <defs>
    <linearGradient id="ring" x1="0" y1="0" x2="1" y2="1">
      <stop offset="0" stop-color="#4F46E5"/><stop offset="1" stop-color="#0EA5A4"/>
    </linearGradient>
    <radialGradient id="glass" cx="38%" cy="34%" r="75%">
      <stop offset="0" stop-color="#FFFFFF"/><stop offset="0.62" stop-color="#F1F5F9"/>
      <stop offset="1" stop-color="#E2E8F0"/>
    </radialGradient>
    <clipPath id="gc"><circle cx="100" cy="96" r="58"/></clipPath>
  </defs>
  <line x1="143" y1="139" x2="191" y2="187" stroke="url(#ring)" stroke-width="26" stroke-linecap="round"/>
  <line x1="143" y1="139" x2="191" y2="187" stroke="#fff" stroke-width="6" stroke-linecap="round" opacity="0.18"/>
  <circle cx="100" cy="96" r="58" fill="url(#glass)"/>
  <g clip-path="url(#gc)">
      <circle cx="77.9" cy="92.1" r="2.5" fill="#2DD4BF" opacity="0.92"/>
      <circle cx="65.6" cy="75.8" r="3.1" fill="#2DD4BF" opacity="0.92"/>
      <circle cx="88.1" cy="81.6" r="3.2" fill="#2DD4BF" opacity="0.92"/>
      <circle cx="84.2" cy="80.1" r="2.6" fill="#2DD4BF" opacity="0.92"/>
      <circle cx="80.6" cy="81.7" r="2.8" fill="#2DD4BF" opacity="0.92"/>
      <circle cx="78.9" cy="74.8" r="4.1" fill="#2DD4BF" opacity="0.92"/>
      <circle cx="109.3" cy="87.6" r="3.9" fill="#2DD4BF" opacity="0.92"/>
      <circle cx="82.8" cy="84.8" r="3.0" fill="#2DD4BF" opacity="0.92"/>
      <circle cx="86.5" cy="74.2" r="2.7" fill="#2DD4BF" opacity="0.92"/>
      <circle cx="75.4" cy="75.1" r="3.4" fill="#2DD4BF" opacity="0.92"/>
      <circle cx="94.9" cy="84.5" r="2.5" fill="#2DD4BF" opacity="0.92"/>
      <circle cx="86.0" cy="86.9" r="3.0" fill="#2DD4BF" opacity="0.92"/>
      <circle cx="70.8" cy="72.2" r="3.2" fill="#2DD4BF" opacity="0.92"/>
      <circle cx="81.9" cy="86.5" r="2.8" fill="#2DD4BF" opacity="0.92"/>
      <circle cx="62.7" cy="69.3" r="3.3" fill="#2DD4BF" opacity="0.92"/>
      <circle cx="121.1" cy="82.9" r="4.2" fill="#6366F1" opacity="0.92"/>
      <circle cx="129.0" cy="92.3" r="3.2" fill="#6366F1" opacity="0.92"/>
      <circle cx="120.5" cy="74.0" r="2.5" fill="#6366F1" opacity="0.92"/>
      <circle cx="113.0" cy="71.6" r="3.8" fill="#6366F1" opacity="0.92"/>
      <circle cx="111.7" cy="79.9" r="3.7" fill="#6366F1" opacity="0.92"/>
      <circle cx="112.4" cy="78.9" r="3.4" fill="#6366F1" opacity="0.92"/>
      <circle cx="101.4" cy="89.3" r="3.3" fill="#6366F1" opacity="0.92"/>
      <circle cx="104.3" cy="57.9" r="2.5" fill="#6366F1" opacity="0.92"/>
      <circle cx="111.4" cy="56.8" r="3.9" fill="#6366F1" opacity="0.92"/>
      <circle cx="111.9" cy="120.9" r="3.1" fill="#6366F1" opacity="0.92"/>
      <circle cx="111.9" cy="69.6" r="2.7" fill="#6366F1" opacity="0.92"/>
      <circle cx="121.7" cy="85.6" r="2.5" fill="#6366F1" opacity="0.92"/>
      <circle cx="120.9" cy="76.3" r="3.1" fill="#6366F1" opacity="0.92"/>
      <circle cx="125.7" cy="78.1" r="2.5" fill="#6366F1" opacity="0.92"/>
      <circle cx="91.9" cy="93.3" r="3.9" fill="#6366F1" opacity="0.92"/>
      <circle cx="93.8" cy="109.3" r="2.9" fill="#F59E0B" opacity="0.92"/>
      <circle cx="72.2" cy="125.3" r="4.1" fill="#F59E0B" opacity="0.92"/>
      <circle cx="101.1" cy="134.3" r="2.7" fill="#F59E0B" opacity="0.92"/>
      <circle cx="88.2" cy="117.7" r="3.5" fill="#F59E0B" opacity="0.92"/>
      <circle cx="86.7" cy="132.0" r="2.4" fill="#F59E0B" opacity="0.92"/>
      <circle cx="77.2" cy="122.0" r="4.1" fill="#F59E0B" opacity="0.92"/>
      <circle cx="83.2" cy="103.7" r="3.3" fill="#F59E0B" opacity="0.92"/>
      <circle cx="86.5" cy="114.6" r="4.0" fill="#F59E0B" opacity="0.92"/>
      <circle cx="88.8" cy="111.9" r="4.0" fill="#F59E0B" opacity="0.92"/>
      <circle cx="91.3" cy="105.5" r="2.6" fill="#F59E0B" opacity="0.92"/>
      <circle cx="82.1" cy="109.4" r="2.5" fill="#F59E0B" opacity="0.92"/>
      <circle cx="89.9" cy="116.9" r="3.0" fill="#F59E0B" opacity="0.92"/>
      <circle cx="95.6" cy="118.6" r="2.4" fill="#F59E0B" opacity="0.92"/>
      <circle cx="127.8" cy="124.1" r="2.4" fill="#FB7185" opacity="0.92"/>
      <circle cx="127.2" cy="110.8" r="3.5" fill="#FB7185" opacity="0.92"/>
      <circle cx="122.1" cy="116.1" r="3.1" fill="#FB7185" opacity="0.92"/>
      <circle cx="130.6" cy="124.4" r="3.9" fill="#FB7185" opacity="0.92"/>
      <circle cx="136.6" cy="115.4" r="2.6" fill="#FB7185" opacity="0.92"/>
      <circle cx="124.5" cy="117.9" r="3.0" fill="#FB7185" opacity="0.92"/>
      <circle cx="121.7" cy="119.7" r="2.4" fill="#FB7185" opacity="0.92"/>
      <circle cx="128.5" cy="113.9" r="3.4" fill="#FB7185" opacity="0.92"/>
      <circle cx="123.8" cy="118.3" r="3.4" fill="#FB7185" opacity="0.92"/>
      <circle cx="122.8" cy="115.9" r="4.0" fill="#FB7185" opacity="0.92"/>
      <circle cx="121.7" cy="115.2" r="2.7" fill="#FB7185" opacity="0.92"/>
      <circle cx="123.7" cy="103.7" r="3.4" fill="#FB7185" opacity="0.92"/>
    <ellipse cx="78" cy="70" rx="34" ry="20" fill="#fff" opacity="0.28" transform="rotate(-28 78 70)"/>
  </g>
  <circle cx="100" cy="96" r="58" fill="none" stroke="url(#ring)" stroke-width="13"/>
</svg>